<svg width="38" height="38" viewBox="0 0 38 38" fill="none" xmlns="http://www.w3.org/2000/svg">
<path d="M25.6797 1.11328C25.6797 0.498453 25.1812 0 24.5664 0H13.4336C12.8188 0 12.3203 0.498453 12.3203 1.11328V2.375H25.6797V1.11328Z" fill="white"/>
<path d="M2.09913 15.1513C1.76381 15.3525 1.55859 15.7149 1.55859 16.1059V17.9614H4.52734C5.14217 17.9614 5.64062 18.4598 5.64062 19.0747C5.64062 19.6895 5.14217 20.188 4.52734 20.188H1.55859V22.4145H4.52734C5.14217 22.4145 5.64062 22.913 5.64062 23.5278C5.64062 24.1426 5.14217 24.6411 4.52734 24.6411H1.55859V26.8676H4.52734C5.14217 26.8676 5.64062 27.3661 5.64062 27.9809C5.64062 28.5958 5.14217 29.0942 4.52734 29.0942H1.55859V31.3208H4.52734C5.14217 31.3208 5.64062 31.8192 5.64062 32.434C5.64062 33.0489 5.14217 33.5473 4.52734 33.5473H1.55859V35.7739H1.11328C0.498453 35.7739 0 36.2723 0 36.8872C0 37.502 0.498453 38.0005 1.11328 38.0005H7.86719V11.6904L2.09913 15.1513Z" fill="white"/>
<path d="M26.793 4.60156H11.207C10.5922 4.60156 10.0938 5.10002 10.0938 5.71484V38H27.9062V5.71484C27.9062 5.10002 27.4078 4.60156 26.793 4.60156ZM15.6602 32.4336C15.6602 33.0484 15.1617 33.5469 14.5469 33.5469C13.932 33.5469 13.4336 33.0484 13.4336 32.4336V10.168C13.4336 9.55314 13.932 9.05469 14.5469 9.05469C15.1617 9.05469 15.6602 9.55314 15.6602 10.168V32.4336ZM20.1133 32.4336C20.1133 33.0484 19.6148 33.5469 19 33.5469C18.3852 33.5469 17.8867 33.0484 17.8867 32.4336V10.168C17.8867 9.55314 18.3852 9.05469 19 9.05469C19.6148 9.05469 20.1133 9.55314 20.1133 10.168V32.4336ZM24.5664 32.4336C24.5664 33.0484 24.068 33.5469 23.4531 33.5469C22.8383 33.5469 22.3398 33.0484 22.3398 32.4336V10.168C22.3398 9.55314 22.8383 9.05469 23.4531 9.05469C24.068 9.05469 24.5664 9.55314 24.5664 10.168V32.4336Z" fill="white"/>
<path d="M36.8867 35.7739H36.4414V33.5473H33.4727C32.8578 33.5473 32.3594 33.0489 32.3594 32.434C32.3594 31.8192 32.8578 31.3208 33.4727 31.3208H36.4414V29.0942H33.4727C32.8578 29.0942 32.3594 28.5958 32.3594 27.9809C32.3594 27.3661 32.8578 26.8676 33.4727 26.8676H36.4414V24.6411H33.4727C32.8578 24.6411 32.3594 24.1426 32.3594 23.5278C32.3594 22.913 32.8578 22.4145 33.4727 22.4145H36.4414V20.188H33.4727C32.8578 20.188 32.3594 19.6895 32.3594 19.0747C32.3594 18.4598 32.8578 17.9614 33.4727 17.9614H36.4414V16.1059C36.4414 15.7149 36.2362 15.3525 35.9009 15.1513L30.1328 11.6904V38.0005H36.8867C37.5015 38.0005 38 37.502 38 36.8872C38 36.2723 37.5015 35.7739 36.8867 35.7739Z" fill="white"/>
</svg>
