<svg width="39" height="42" viewBox="0 0 39 42" fill="none" xmlns="http://www.w3.org/2000/svg">
<path d="M38.0748 36.4139V42H0V36.4127C0 33.7748 2.27416 30.5274 5.05231 29.2078L11.2343 26.2708L15.5256 35.2135L17.7228 29.2563C18.1561 29.3382 18.5856 29.4474 19.0374 29.4474C19.4893 29.4474 19.9175 29.3382 20.352 29.2563L22.4375 34.9206L26.6444 26.1715L33.0262 29.2066C35.8007 30.5262 38.0748 33.7735 38.0748 36.4139ZM5.61589 16.8353V12.8009C5.61589 12.1169 5.97216 11.5173 6.50966 11.1722C7.23089 4.89342 12.5712 0 19.0399 0C25.5086 0 30.8501 4.89342 31.5726 11.1722C32.1089 11.5173 32.4652 12.1169 32.4652 12.8009V16.8353C32.4652 17.9065 31.5974 18.7755 30.5249 18.7755C29.4524 18.7755 28.5847 17.9065 28.5847 16.8353V15.9874C27.5345 21.2694 23.6677 26.1727 19.0411 26.1727C14.4146 26.1727 10.5478 21.2694 9.49761 15.9874V16.8353C9.49761 17.7042 8.92038 18.4316 8.13212 18.6787C8.90424 21.3066 10.6173 23.5771 12.9833 25.0667C13.4203 24.9227 13.9714 24.95 14.5065 25.2281C15.3655 25.6749 15.8037 26.5439 15.4785 27.1646C15.1545 27.7852 14.1961 27.9243 13.3322 27.4761C12.7015 27.1472 12.3018 26.5948 12.2596 26.0784C9.54974 24.3454 7.62813 21.6927 6.8349 18.6327C6.12236 18.3472 5.61589 17.6521 5.61589 16.8353ZM7.83171 10.7191C7.89005 10.7228 7.94591 10.7241 8.00177 10.7452C8.14205 10.7973 8.24384 10.8979 8.3146 11.0158C8.73541 11.1945 9.07058 11.521 9.27664 11.9257C9.84891 6.5618 13.995 3.72406 19.0374 3.72406C24.0798 3.72406 28.2259 6.5618 28.7982 11.9257C29.0825 11.3683 29.6225 10.9699 30.2692 10.8867C29.43 5.43341 24.7203 1.24011 19.0374 1.24011C13.4128 1.24135 8.74038 5.349 7.83171 10.7191Z" fill="white"/>
</svg>
