<svg width="28" height="28" viewBox="0 0 28 28" fill="none" xmlns="http://www.w3.org/2000/svg">
<g clip-path="url(#clip0)">
<path d="M27.994 8.5706C27.994 4.88936 25.01 1.90531 21.3288 1.90531C17.6476 1.90531 14.6635 4.88936 14.6635 8.5706C14.6635 12.2518 17.6476 15.2358 21.3288 15.2358C22.0853 15.2358 22.8095 15.104 23.4875 14.8715C21.9875 23.4742 15.2791 29.022 21.4978 24.4561C28.3934 19.393 28.0014 8.7743 27.9937 8.5797C27.9937 8.57667 27.994 8.57397 27.994 8.5706Z" fill="#C23A3A"/>
<path d="M13.33 8.5706C13.33 4.88936 10.3459 1.90531 6.66468 1.90531C2.98344 1.90531 -0.000617981 4.88936 -0.000617981 8.5706C-0.000617981 12.2518 2.98349 15.2358 6.66473 15.2358C7.42133 15.2358 8.14546 15.104 8.82341 14.8715C7.32345 23.4742 0.614998 29.022 6.83371 24.4561C13.7293 19.393 13.3374 8.7743 13.3296 8.5797C13.3296 8.57667 13.33 8.57397 13.33 8.5706Z" fill="#C23A3A"/>
</g>
<defs>
<clipPath id="clip0">
<rect width="28" height="28" fill="white" transform="translate(28 28) rotate(-180)"/>
</clipPath>
</defs>
</svg>
