<svg width="45" height="45" viewBox="0 0 45 45" fill="none" xmlns="http://www.w3.org/2000/svg">
<g clip-path="url(#clip0)">
<path d="M24.6298 29.7205C22.4017 32.5679 21.9924 36.4367 23.5762 39.6869C25.1597 42.9374 28.4585 44.9996 32.0739 44.9996C36.4946 44.9992 40.3249 41.9349 41.2952 37.6218C42.2658 33.3092 40.1171 28.8995 36.1226 27.0057C32.1281 25.112 27.3547 26.2394 24.6298 29.7205ZM30.5742 30.8569C30.5742 30.5238 30.8444 30.2535 31.1775 30.2535C31.5106 30.2535 31.7809 30.5238 31.7809 30.8569V36.1017L34.3016 37.7169C34.4893 37.8304 34.6001 38.0367 34.5918 38.2558C34.5836 38.4746 34.4571 38.6722 34.2615 38.7712C34.0663 38.8702 33.8321 38.8553 33.6507 38.7327L30.8519 36.9391C30.6787 36.8284 30.5742 36.6367 30.5742 36.4312V30.8569Z" fill="white"/>
<path d="M4.7486 36.1948C5.40027 36.8441 6.2837 37.2078 7.20406 37.2051H7.22134L21.531 37.1261C21.4533 36.6037 21.414 36.0757 21.414 35.5474C21.4132 29.8874 25.8366 25.2141 31.488 24.9038L31.413 10.3136L25.7463 10.3407H25.7231C23.1384 10.3403 21.0396 8.25138 21.0271 5.66629L21 0L7.04261 0.0671707C5.11509 0.0762052 3.55995 1.64627 3.56938 3.57418L3.71393 33.7318C3.71629 34.6581 4.08867 35.545 4.7486 36.1948ZM18.9868 22.2743H16.9407C16.6076 22.2743 16.3373 22.0045 16.3373 21.671C16.3373 21.3379 16.6076 21.0676 16.9407 21.0676H18.9868C19.3203 21.0676 19.5902 21.3379 19.5902 21.671C19.5902 22.0045 19.3203 22.2743 18.9868 22.2743ZM9.05262 15.9509H26.0409C26.3744 15.9509 26.6443 16.2211 26.6443 16.5542C26.6443 16.8873 26.3744 17.1576 26.0409 17.1576H9.05262C8.71913 17.1576 8.44927 16.8873 8.44927 16.5542C8.44927 16.2211 8.71913 15.9509 9.05262 15.9509ZM9.05262 21.0676H14.3477C14.6812 21.0676 14.9511 21.3379 14.9511 21.671C14.9511 22.0045 14.6812 22.2743 14.3477 22.2743H9.05262C8.71913 22.2743 8.44927 22.0045 8.44927 21.671C8.44927 21.3379 8.71913 21.0676 9.05262 21.0676Z" fill="white"/>
<path d="M23.268 8.12409C23.9201 8.77341 24.8035 9.13715 25.7238 9.1348H25.7407L30.5735 9.11123L22.2109 0.845703L22.2341 5.66117C22.2357 6.58742 22.6081 7.47399 23.268 8.12409Z" fill="white"/>
</g>
<defs>
<clipPath id="clip0">
<rect width="45" height="45" fill="white"/>
</clipPath>
</defs>
</svg>
