<svg width="51" height="51" viewBox="0 0 51 51" fill="none" xmlns="http://www.w3.org/2000/svg">
<path d="M20.9578 38.2504H23.6672L23.4281 37.2941C23.3484 36.9754 23.0297 36.6566 22.6313 36.6566H21.5156C20.2406 36.6566 19.0453 36.0191 18.2484 34.9832L15.7781 31.5566L12.75 32.8316L19.6031 37.7723C19.9219 38.091 20.4797 38.2504 20.9578 38.2504Z" fill="white"/>
<path d="M32.6717 13.5469H18.3279C17.292 13.5469 16.4154 14.1844 16.0967 15.1406H34.9029C34.5842 14.1844 33.7076 13.5469 32.6717 13.5469Z" fill="white"/>
<path d="M32.6717 11.9531C33.4686 11.9531 34.2654 12.1922 34.9029 12.6703C34.2654 9.32344 31.9545 6.45469 28.6873 5.33906V10.3594H27.0936V3.98438C27.0936 3.50625 26.7748 3.1875 26.2967 3.1875H24.7029C24.2248 3.1875 23.9061 3.50625 23.9061 3.98438V10.3594H22.3123V5.33906C19.0451 6.45469 16.6545 9.24375 16.0967 12.6703C16.7342 12.1922 17.5311 11.9531 18.3279 11.9531H32.6717Z" fill="white"/>
<path d="M29.4049 36.6559H28.2893C27.8908 36.6559 27.5721 36.8949 27.4924 37.2934L27.333 38.2496H30.0424C30.5205 38.2496 31.0783 38.0902 31.4768 37.7715L36.6565 33.9465V31.9543L35.2221 31.3965L32.6721 34.9824C31.9549 36.0184 30.7596 36.6559 29.4049 36.6559Z" fill="white"/>
<path d="M41.4375 29.9629C41.4375 29.6441 40.8 29.166 39.8438 29.166C38.8875 29.166 38.25 29.6441 38.25 29.9629V37.2942L41.4375 32.8316V29.9629Z" fill="white"/>
<path d="M17.5313 21.9937V22.4719C17.5313 24.5437 18.6469 26.3766 20.4 27.3328L22.7906 28.6078C24.4641 29.4844 26.4563 29.4844 28.1297 28.6078L30.5203 27.3328C32.2734 26.3766 33.3891 24.4641 33.3891 22.4719V21.9937L34.8234 21.1172C34.9031 21.0375 34.9828 20.9578 34.9828 20.7984V18.5672C34.9828 18.4078 34.8234 18.2484 34.5844 18.2484C34.5047 18.2484 34.425 18.2484 34.425 18.3281L33.4688 19.4437V16.7344H17.5313V19.4437L16.4953 18.4078C16.3359 18.2484 16.0969 18.3281 16.0172 18.4078C15.9375 18.4875 15.9375 18.5672 15.9375 18.5672V20.7984C15.9375 20.8781 16.0172 21.0375 16.0969 21.1172L17.5313 21.9937Z" fill="white"/>
<path d="M41.4371 44.6252V40.8799L38.9668 44.6252H41.4371Z" fill="white"/>
<path d="M43.0312 33.3895V33.4691H42.9516L32.6719 47.8129H44.625V31.1582L43.0312 33.3895ZM43.0312 46.2191H35.9391L43.0312 35.6207V46.2191Z" fill="white"/>
<path d="M36.6562 35.9395L32.3531 39.0473C31.6359 39.5254 30.8391 39.8441 30.0422 39.8441H26.2969V47.8129H30.6797L36.6562 39.5254V35.9395Z" fill="white"/>
<path d="M15.1406 46.2188H20.7188V47.8125H15.1406V46.2188Z" fill="white"/>
<path d="M15.1406 43.0312H20.7188V44.625H15.1406V43.0312Z" fill="white"/>
<path d="M28.3689 35.0625H29.4846C30.2814 35.0625 30.9986 34.6641 31.3971 34.0266L33.708 30.8391L30.1221 29.4844L28.9268 30.1219C26.7752 31.3172 24.2252 31.3172 22.0736 30.1219L20.8783 29.4844L17.3721 30.9187L19.6033 34.0266C20.0814 34.6641 20.7986 35.0625 21.5158 35.0625H22.6314C23.7471 35.0625 24.7033 35.7797 24.9424 36.8953L25.5002 38.9672L26.058 36.8953C26.2971 35.7797 27.2533 35.0625 28.3689 35.0625Z" fill="white"/>
<path d="M18.6469 39.0467L11.1562 33.6279C9.16406 34.9826 7.96875 37.2139 7.96875 39.6045V47.8123H13.5469V41.4373H14.9016L14.3438 39.2061L15.8578 38.8076L16.4953 41.3576H22.3125V47.7326H24.7031V39.8436H20.9578C20.0812 39.8436 19.2844 39.6045 18.6469 39.0467Z" fill="white"/>
</svg>
