<svg width="44" height="45" viewBox="0 0 44 45" fill="none" xmlns="http://www.w3.org/2000/svg">
<path fill-rule="evenodd" clip-rule="evenodd" d="M16.1809 22.8792C16.0488 21.6221 15.2538 20.6073 14.0617 20.1794C12.4711 19.6086 11.0256 19.2553 9.61425 19.1198V22.0544C9.61425 22.767 9.03654 23.3447 8.32396 23.3447C7.61137 23.3447 7.03366 22.767 7.03366 22.0544V19.1162C5.61614 19.2484 4.16455 19.6008 2.56656 20.1744C1.37123 20.6035 0.564535 21.6393 0.445312 22.905C0.30725 24.3702 0.135296 27.1368 0.0145245 28.4317C-0.0758824 29.4011 0.258477 30.327 0.941646 31.0102L3.16147 33.23V40.8157C3.16147 43.4578 6.19918 44.9945 8.32421 43.3939C10.4492 44.9945 13.487 43.4578 13.487 40.8157V33.1935C14.2044 32.5734 15.0138 31.6716 15.7032 30.9822C16.379 30.3064 16.7117 29.4113 16.6379 28.455C16.5065 26.7513 16.3473 24.4625 16.1809 22.8792Z" fill="white"/>
<path fill-rule="evenodd" clip-rule="evenodd" d="M30.671 10.5804V1.97846C30.671 0.887725 29.7834 0 28.6926 0H15.1874C14.0967 0 13.209 0.887725 13.209 1.97846V10.5804C13.209 11.6712 14.0967 12.5589 15.1874 12.5589H15.485L14.5633 14.6045C14.3865 14.9551 14.3715 15.3819 14.5599 15.7604C14.8773 16.3978 15.6513 16.6573 16.2887 16.34L23.8908 12.5589H28.6926C29.7832 12.5589 30.671 11.6711 30.671 10.5804Z" fill="white"/>
<path d="M35.6608 18.0423C37.975 18.0423 39.8509 16.1664 39.8509 13.8522C39.8509 11.5381 37.975 9.66211 35.6608 9.66211C33.3467 9.66211 31.4707 11.5381 31.4707 13.8522C31.4707 16.1664 33.3467 18.0423 35.6608 18.0423Z" fill="white"/>
<path fill-rule="evenodd" clip-rule="evenodd" d="M43.9904 28.455C43.8591 26.7513 43.6998 24.4625 43.5335 22.8792C43.4013 21.6221 42.6063 20.6073 41.4142 20.1794C39.8237 19.6086 38.3781 19.2553 36.9668 19.1198V22.0544C36.9668 22.767 36.3891 23.3447 35.6765 23.3447C34.9639 23.3447 34.3862 22.767 34.3862 22.0544V19.1162C32.9687 19.2484 31.5171 19.6008 29.9191 20.1744C28.7238 20.6035 27.9171 21.6393 27.7979 22.905C27.6598 24.3702 27.4878 27.1368 27.3671 28.4317C27.2767 29.4011 27.611 30.327 28.2942 31.0102L30.514 33.23V40.8157C30.514 43.4578 33.5517 44.9945 35.6768 43.3939C37.8017 44.9945 40.8395 43.4578 40.8395 40.8157V33.1935C41.557 32.5734 42.3663 31.6716 43.0557 30.9822C43.7315 30.3064 44.0641 29.4113 43.9904 28.455Z" fill="white"/>
<path d="M8.30828 18.0423C10.6224 18.0423 12.4984 16.1664 12.4984 13.8522C12.4984 11.5381 10.6224 9.66211 8.30828 9.66211C5.99414 9.66211 4.11816 11.5381 4.11816 13.8522C4.11816 16.1664 5.99414 18.0423 8.30828 18.0423Z" fill="white"/>
</svg>
