<svg width="41" height="41" viewBox="0 0 41 41" fill="none" xmlns="http://www.w3.org/2000/svg">
<g clip-path="url(#clip0)">
<path d="M5.4668 37.583H9.5668V40.3163C9.5668 40.6937 9.26086 40.9997 8.88346 40.9997H6.15013C5.77274 40.9997 5.4668 40.6937 5.4668 40.3163V37.583Z" fill="white"/>
<path d="M31.4336 37.583H35.5336V40.3163C35.5336 40.6937 35.2277 40.9997 34.8503 40.9997H32.1169C31.7395 40.9997 31.4336 40.6937 31.4336 40.3163V37.583Z" fill="white"/>
<path d="M21.8669 8.2002H19.1335C18.7561 8.2002 18.4502 8.50613 18.4502 8.88353V10.2502C18.4502 10.6276 18.7561 10.9335 19.1335 10.9335H21.8669C22.2443 10.9335 22.5502 10.6276 22.5502 10.2502V8.88353C22.5502 8.50613 22.2443 8.2002 21.8669 8.2002Z" fill="white"/>
<path d="M26.6501 0H14.3501C13.5953 0 12.9834 0.611878 12.9834 1.36667V5.46667C12.9834 6.22146 13.5953 6.83333 14.3501 6.83333H26.6501C27.4049 6.83333 28.0167 6.22146 28.0167 5.46667V1.36667C28.0167 0.611878 27.4049 0 26.6501 0ZM24.4019 3.90183L23.7186 4.58517C23.5231 4.78228 23.2277 4.84153 22.9714 4.73507C22.715 4.62861 22.5484 4.37761 22.5501 4.1H17.0834C16.706 4.1 16.4001 3.79406 16.4001 3.41667C16.4001 3.03927 16.706 2.73333 17.0834 2.73333H22.5501C22.549 2.5517 22.6203 2.37712 22.7482 2.24817C22.8765 2.1188 23.0512 2.04604 23.2334 2.04604C23.4156 2.04604 23.5903 2.1188 23.7186 2.24817L24.4019 2.9315C24.5313 3.05981 24.604 3.23446 24.604 3.41667C24.604 3.59887 24.5313 3.77353 24.4019 3.90183Z" fill="white"/>
<path d="M11.8965 26.5954L13.8782 25.7412L11.7052 23.2334L9.42285 25.7617L11.343 26.5886C11.5196 26.6626 11.7181 26.665 11.8965 26.5954Z" fill="white"/>
<path d="M28.8509 21.7027C28.5875 21.815 28.3035 21.8709 28.0173 21.8667C27.7425 21.8662 27.4706 21.8104 27.2178 21.7027L24.9628 20.7392L23.6986 22.2221L30.5319 30.3059C30.7772 30.5927 30.7436 31.0241 30.4568 31.2694C30.1699 31.5147 29.7386 31.4811 29.4933 31.1943L22.9674 23.4384L20.6578 24.4361C20.3916 24.547 20.1056 24.6028 19.8173 24.6001C19.5425 24.5996 19.2706 24.5438 19.0178 24.4361L16.7696 23.4726L15.2799 25.2834L19.6464 30.3127C19.8759 30.5976 19.8403 31.0127 19.5657 31.2544C19.2911 31.496 18.8748 31.4786 18.6214 31.2148L14.8221 26.8414L12.4236 27.8664C12.1677 27.9703 11.8934 28.0215 11.6173 28.0167C11.3425 28.0162 11.0706 27.9604 10.8178 27.8527L8.46025 26.8414L4.10059 31.6931V32.1167C4.10059 32.4941 4.40652 32.8001 4.78392 32.8001H36.2173C36.5947 32.8001 36.9006 32.4941 36.9006 32.1167V27.4906L31.1674 20.7119L28.8509 21.7027Z" fill="white"/>
<path d="M20.1251 23.1784L22.0452 22.3516L19.8996 19.8164L17.7266 22.3857L19.5784 23.1784C19.7527 23.2545 19.9508 23.2545 20.1251 23.1784Z" fill="white"/>
<path d="M36.2173 13.667H4.78392C4.40652 13.667 4.10059 13.9729 4.10059 14.3503V29.6502L10.6743 22.3317C10.9413 22.0509 11.3118 21.8919 11.6993 21.8919C12.0867 21.8919 12.4572 22.0509 12.7243 22.3317L14.3506 24.2245L18.8606 18.9287C19.1266 18.6461 19.4975 18.4858 19.8856 18.4858C20.2737 18.4858 20.6446 18.6461 20.9106 18.9287L22.8308 21.1837L27.0606 16.1953C27.3266 15.9127 27.6975 15.7525 28.0856 15.7525C28.4737 15.7525 28.8446 15.9127 29.1106 16.1953L36.9006 25.3725V14.3503C36.9006 13.9729 36.5947 13.667 36.2173 13.667Z" fill="white"/>
<path d="M28.3243 20.445L30.2444 19.6182L28.0988 17.083L25.9121 19.6455L27.7708 20.445C27.947 20.5231 28.148 20.5231 28.3243 20.445Z" fill="white"/>
<path d="M37.5836 10.25H3.41693C1.90735 10.25 0.683594 11.4738 0.683594 12.9833V33.4833C0.683594 34.9929 1.90735 36.2167 3.41693 36.2167H37.5836C39.0932 36.2167 40.3169 34.9929 40.3169 33.4833V12.9833C40.3169 11.4738 39.0932 10.25 37.5836 10.25ZM38.2669 32.1167C38.2669 33.2489 37.3491 34.1667 36.2169 34.1667H4.78359C3.65141 34.1667 2.73359 33.2489 2.73359 32.1167V14.35C2.73359 13.2178 3.65141 12.3 4.78359 12.3H36.2169C37.3491 12.3 38.2669 13.2178 38.2669 14.35V32.1167Z" fill="white"/>
</g>
<defs>
<clipPath id="clip0">
<rect width="41" height="41" fill="white"/>
</clipPath>
</defs>
</svg>
