<svg width="20" height="20" viewBox="0 0 20 20" fill="none" xmlns="http://www.w3.org/2000/svg">
<g clip-path="url(#clip0)">
<path d="M19.5904 4.13574L12.6992 9.99023L19.6021 14.6772V4.2677C19.6021 4.2227 19.5975 4.17879 19.5904 4.13574Z" fill="#808080"/>
<path d="M12.0789 10.5186L11.2102 11.2566C10.8021 11.6033 10.3018 11.7766 9.80158 11.7766C9.30136 11.7766 8.80106 11.6033 8.39299 11.2566L7.52429 10.5186L0 15.6275V15.7327C0 16.1687 0.347687 16.5234 0.775011 16.5234H18.828C19.2554 16.5234 19.603 16.1687 19.603 15.7327V15.6275L12.0789 10.5186Z" fill="#808080"/>
<path d="M18.8297 3.47754C18.8287 3.47754 18.8278 3.47754 18.8268 3.47754H0.77377C0.772812 3.47754 0.771893 3.47754 0.770936 3.47754C0.661511 3.47797 0.61415 3.6202 0.698229 3.69164L7.79213 9.71836C7.79298 9.71906 7.79382 9.71981 7.79466 9.72051L8.88765 10.6491C9.41647 11.0984 10.1842 11.0984 10.713 10.6491L18.9024 3.69164C18.9865 3.62016 18.9391 3.47793 18.8297 3.47754Z" fill="#808080"/>
<path d="M0.0116776 4.13574C0.00455619 4.17879 0 4.22262 0 4.2677V14.6772L6.90285 9.9902L0.0116776 4.13574Z" fill="#808080"/>
</g>
<defs>
<clipPath id="clip0">
<rect width="19.6031" height="20" fill="white"/>
</clipPath>
</defs>
</svg>
