<svg width="15" height="15" viewBox="0 0 15 15" fill="none" xmlns="http://www.w3.org/2000/svg">
<path d="M14.9908 3.10156L9.71777 7.49243L14.9997 11.0077V3.20053C14.9997 3.16678 14.9962 3.13385 14.9908 3.10156Z" fill="#C23A3A"/>
<path d="M9.24258 7.88867L8.57786 8.44218C8.26558 8.70222 7.88279 8.83224 7.50003 8.83224C7.11727 8.83224 6.73444 8.70222 6.4222 8.44218L5.75748 7.88867L0 11.7204V11.7993C0 12.1263 0.266045 12.3923 0.593027 12.3923H14.4069C14.7339 12.3923 15 12.1263 15 11.7993V11.7204L9.24258 7.88867Z" fill="#C23A3A"/>
<path d="M14.4087 2.60742C14.408 2.60742 14.4073 2.60742 14.4066 2.60742H0.592625C0.591892 2.60742 0.591189 2.60742 0.590457 2.60742C0.506726 2.60774 0.470486 2.71441 0.534822 2.768L5.96298 7.28804C5.96362 7.28856 5.96427 7.28912 5.96491 7.28965L6.80125 7.98607C7.2059 8.32304 7.79333 8.32304 8.19798 7.98607L14.4644 2.768C14.5287 2.71438 14.4924 2.60771 14.4087 2.60742Z" fill="#C23A3A"/>
<path d="M0.00893555 3.10156C0.00348633 3.13385 0 3.16672 0 3.20053V11.0077L5.28196 7.4924L0.00893555 3.10156Z" fill="#C23A3A"/>
</svg>
