<svg width="81" height="81" viewBox="0 0 81 81" fill="none" xmlns="http://www.w3.org/2000/svg">
<path d="M56.451 48.3701H24.5494C23.2831 48.3701 22.2656 49.5023 22.2656 50.7694V76.0099H58.7348V50.7694C58.7348 49.5023 57.7174 48.3701 56.451 48.3701ZM52.6121 70.2516H28.3883C27.5403 70.2516 26.8528 69.5641 26.8528 68.7161C26.8528 67.8681 27.5403 67.1805 28.3883 67.1805H52.6121C53.4601 67.1805 54.1477 67.8681 54.1477 68.7161C54.1477 69.5641 53.4601 70.2516 52.6121 70.2516ZM52.6121 64.1095H28.3883C27.5403 64.1095 26.8528 63.4219 26.8528 62.5739C26.8528 61.7259 27.5403 61.0384 28.3883 61.0384H52.6121C53.4601 61.0384 54.1477 61.7259 54.1477 62.5739C54.1477 63.4219 53.4601 64.1095 52.6121 64.1095ZM52.6121 57.9673H28.3883C27.5403 57.9673 26.8528 57.2797 26.8528 56.4317C26.8528 55.5837 27.5403 54.8962 28.3883 54.8962H52.6121C53.4601 54.8962 54.1477 55.5837 54.1477 56.4317C54.1477 57.2797 53.4601 57.9673 52.6121 57.9673Z" fill="#C23A3A"/>
<path d="M21.114 14.5879H13.0906C11.798 14.6246 10.7648 15.6751 10.749 16.9677V20.3462H21.114V14.5879Z" fill="#C23A3A"/>
<path d="M56.8154 7.37003C56.7996 6.07741 55.7664 5.02697 54.4738 4.99023H26.5266C25.234 5.02697 24.2008 6.07741 24.1851 7.37003V20.3457H56.8154V7.37003Z" fill="#C23A3A"/>
<path d="M70.2512 16.9677C70.2354 15.6751 69.2022 14.6246 67.9096 14.5879H59.8862V20.3462H70.2512V16.9677Z" fill="#C23A3A"/>
<path d="M74.8578 23.4172H6.14218C4.52266 23.4044 2.96462 24.0372 1.81221 25.1754C0.659805 26.3128 0.00749778 27.8634 0 29.4829V54.4542C0 57.8327 2.76368 60.6542 6.14218 60.6542H19.1943V50.7691C19.1943 47.8135 21.5936 45.2987 24.5492 45.2987H56.4508C59.4064 45.2987 61.8057 47.794 61.8057 50.7691V60.6542H74.8578C78.2596 60.6242 81.0015 57.8567 81 54.4542V29.4829C80.9925 27.8634 80.3402 26.3128 79.1878 25.1754C78.0354 24.0372 76.4773 23.4044 74.8578 23.4172ZM22.8412 35.7015H9.02133C8.17333 35.7015 7.48578 35.014 7.48578 34.166C7.48578 33.318 8.17333 32.6305 9.02133 32.6305H22.8412C23.6892 32.6305 24.3768 33.318 24.3768 34.166C24.3768 35.014 23.6892 35.7015 22.8412 35.7015Z" fill="#C23A3A"/>
</svg>
