<svg width="101" height="55" viewBox="0 0 101 55" fill="none" xmlns="http://www.w3.org/2000/svg">
<path d="M40.7758 9.21188C46.0021 10.6804 50.6186 12.5457 55.0823 14.3493C67.8812 19.5235 78.934 23.988 98.0354 15.9915C98.1946 15.9254 98.3518 15.8599 98.5067 15.7969C98.6926 15.7214 98.8412 15.6426 99.0062 15.5284C99.6519 15.0811 100.105 14.3536 100.105 13.5682V5C100.105 2.23858 97.8664 0 95.105 0H4.89332C2.31513 0 0.225098 2.09003 0.225098 4.66822C0.225098 8.07036 3.78033 10.3833 7.04123 9.4132C14.6829 7.13982 26.7221 5.26772 40.7758 9.21188Z" fill="#C23A3A"/>
<path d="M100.104 18.7806C100.104 18.7806 100.104 18.7806 100.104 18.7807C100.018 18.8078 99.935 18.8295 99.8555 18.8463C99.6959 18.88 99.5358 18.9151 99.3855 18.9783C99.3583 18.9898 99.3305 19.0015 99.3022 19.0135C91.3285 22.352 84.6051 23.6252 78.6017 23.6252C69.2838 23.6252 61.7042 20.5587 53.8524 17.386C49.4712 15.6142 44.9409 13.7841 39.8884 12.3661C22.9952 7.6235 8.97387 11.8894 3.00123 14.3304C1.26761 15.0389 0.226074 16.7674 0.226074 18.6402V49.0819C0.226074 51.8433 2.46465 54.0819 5.22607 54.0819H95.1057C97.8671 54.0819 100.106 51.8433 100.106 49.0819V18.782C100.106 18.7812 100.105 18.7806 100.104 18.7806ZM15.0736 34.4179C13.121 36.3708 9.95498 36.3709 8.00228 34.4181L7.4378 33.8536C5.48523 31.901 5.48526 28.7352 7.43786 26.7826L8.00234 26.2181C9.95503 24.2654 13.121 24.2655 15.0736 26.2183L15.638 26.7828C17.5904 28.7353 17.5904 31.9008 15.6381 33.8534L15.0736 34.4179ZM60.1327 33.1606H26.885C25.3151 33.1606 24.0425 31.888 24.0425 30.3182C24.0425 28.7484 25.3151 27.4758 26.885 27.4758H57.2905C58.8603 27.4758 60.1329 28.7484 60.1329 30.3182V33.1604C60.1329 33.1605 60.1328 33.1606 60.1327 33.1606ZM96.5127 49.1653C96.5127 49.9573 95.8707 50.5993 95.0787 50.5993H76.198C75.406 50.5993 74.764 49.9573 74.764 49.1653C74.764 48.3733 75.406 47.7312 76.198 47.7312H95.0787C95.8707 47.7312 96.5127 48.3733 96.5127 49.1653ZM96.5127 43.429C96.5127 44.2209 95.8707 44.8629 95.0788 44.8629H76.1979C75.406 44.8629 74.764 44.2209 74.764 43.429C74.764 42.6371 75.406 41.9951 76.1979 41.9951H95.0788C95.8707 41.9951 96.5127 42.6371 96.5127 43.429ZM96.5127 37.6931C96.5127 38.485 95.8707 39.127 95.0788 39.127H76.1979C75.406 39.127 74.764 38.485 74.764 37.6931C74.764 36.9012 75.406 36.2592 76.1979 36.2592H95.0788C95.8707 36.2592 96.5127 36.9012 96.5127 37.6931Z" fill="#C23A3A"/>
</svg>
