<svg width="77" height="77" viewBox="0 0 77 77" fill="none" xmlns="http://www.w3.org/2000/svg">
<g clip-path="url(#clip0)">
<path d="M10.2666 70.583H17.9666V75.7163C17.9666 76.4251 17.392 76.9997 16.6833 76.9997H11.5499C10.8412 76.9997 10.2666 76.4251 10.2666 75.7163V70.583Z" fill="#C23A3A"/>
<path d="M59.0332 70.583H66.7332V75.7163C66.7332 76.4251 66.1586 76.9997 65.4499 76.9997H60.3165C59.6078 76.9997 59.0332 76.4251 59.0332 75.7163V70.583Z" fill="#C23A3A"/>
<path d="M41.0666 15.4004H35.9332C35.2245 15.4004 34.6499 15.975 34.6499 16.6837V19.2504C34.6499 19.9592 35.2245 20.5337 35.9332 20.5337H41.0666C41.7753 20.5337 42.3499 19.9592 42.3499 19.2504V16.6837C42.3499 15.975 41.7753 15.4004 41.0666 15.4004Z" fill="#C23A3A"/>
<path d="M50.05 0H26.95C25.5324 0 24.3833 1.14914 24.3833 2.56667V10.2667C24.3833 11.6842 25.5324 12.8333 26.95 12.8333H50.05C51.4675 12.8333 52.6166 11.6842 52.6166 10.2667V2.56667C52.6166 1.14914 51.4675 0 50.05 0ZM45.8278 7.32783L44.5445 8.61117C44.1773 8.98136 43.6227 9.09262 43.1412 8.89269C42.6596 8.69276 42.3469 8.22137 42.35 7.7H32.0833C31.3745 7.7 30.8 7.12543 30.8 6.41667C30.8 5.7079 31.3745 5.13333 32.0833 5.13333H42.35C42.348 4.79222 42.4819 4.46436 42.7221 4.22217C42.9631 3.97922 43.2911 3.84256 43.6333 3.84256C43.9755 3.84256 44.3035 3.97922 44.5445 4.22217L45.8278 5.5055C46.0707 5.74647 46.2074 6.07448 46.2074 6.41667C46.2074 6.75885 46.0707 7.08687 45.8278 7.32783Z" fill="#C23A3A"/>
<path d="M22.3429 49.9478L26.0646 48.3436L21.9836 43.6338L17.6973 48.3821L21.3034 49.935C21.6351 50.074 22.0079 50.0786 22.3429 49.9478Z" fill="#C23A3A"/>
<path d="M54.182 40.7583C53.6874 40.9692 53.1541 41.0741 52.6164 41.0663C52.1003 41.0653 51.5897 40.9606 51.1149 40.7583L46.8799 38.9488L44.5057 41.7336L57.3391 56.9155C57.7997 57.4541 57.7365 58.2643 57.1979 58.725C56.6592 59.1857 55.8491 59.1225 55.3884 58.5838L43.1325 44.018L38.7949 45.8916C38.295 46.1 37.758 46.2048 37.2164 46.1996C36.7003 46.1986 36.1897 46.0939 35.7149 45.8916L31.4927 44.0821L28.695 47.483L36.8955 56.9283C37.3265 57.4633 37.2596 58.2429 36.7439 58.6967C36.2281 59.1506 35.4465 59.1178 34.9705 58.6223L27.8352 50.409L23.3307 52.334C22.8501 52.5291 22.335 52.6252 21.8164 52.6163C21.3003 52.6153 20.7897 52.5106 20.3149 52.3083L15.8874 50.409L7.69971 59.5206V60.3163C7.69971 61.0251 8.27428 61.5996 8.98304 61.5996H68.0164C68.7251 61.5996 69.2997 61.0251 69.2997 60.3163V51.6281L58.5326 38.8975L54.182 40.7583Z" fill="#C23A3A"/>
<path d="M37.7941 43.5308L41.4002 41.978L37.3706 37.2168L33.2896 42.0421L36.7674 43.5308C37.0947 43.6737 37.4667 43.6737 37.7941 43.5308Z" fill="#C23A3A"/>
<path d="M68.0164 25.667H8.98304C8.27428 25.667 7.69971 26.2416 7.69971 26.9503V55.6842L20.0454 41.9397C20.5469 41.4123 21.2427 41.1138 21.9704 41.1138C22.6981 41.1138 23.3939 41.4123 23.8954 41.9397L26.9497 45.4945L35.4197 35.5487C35.9193 35.0179 36.6158 34.717 37.3447 34.717C38.0736 34.717 38.7701 35.0179 39.2697 35.5487L42.8759 39.7837L50.8197 30.4153C51.3193 29.8846 52.0158 29.5837 52.7447 29.5837C53.4736 29.5837 54.1701 29.8846 54.6697 30.4153L69.2997 47.6505V26.9503C69.2997 26.2416 68.7251 25.667 68.0164 25.667Z" fill="#C23A3A"/>
<path d="M53.1942 38.397L56.8004 36.8442L52.7707 32.083L48.6641 36.8955L52.1547 38.397C52.4857 38.5436 52.8632 38.5436 53.1942 38.397Z" fill="#C23A3A"/>
<path d="M70.5832 19.25H6.41654C3.58147 19.25 1.2832 21.5483 1.2832 24.3833V62.8833C1.2832 65.7184 3.58147 68.0167 6.41654 68.0167H70.5832C73.4183 68.0167 75.7165 65.7184 75.7165 62.8833V24.3833C75.7165 21.5483 73.4183 19.25 70.5832 19.25ZM71.8665 60.3167C71.8665 62.443 70.1428 64.1667 68.0165 64.1667H8.9832C6.85691 64.1667 5.1332 62.443 5.1332 60.3167V26.95C5.1332 24.8237 6.85691 23.1 8.9832 23.1H68.0165C70.1428 23.1 71.8665 24.8237 71.8665 26.95V60.3167Z" fill="#C23A3A"/>
</g>
<defs>
<clipPath id="clip0">
<rect width="77" height="77" fill="white"/>
</clipPath>
</defs>
</svg>
