<svg width="92" height="92" viewBox="0 0 92 92" fill="none" xmlns="http://www.w3.org/2000/svg">
<path d="M13.0776 0V92H78.9217V0H13.0776ZM75.9895 88.8856H16.0081V3.11442H75.9895V88.8856ZM32.0912 16.7619H30.8967C30.9218 16.5886 30.9841 16.4516 31.0824 16.3507C31.1805 16.2495 31.3189 16.1993 31.496 16.1993C31.6603 16.1993 31.797 16.2478 31.9072 16.3432C32.0197 16.4381 32.0796 16.5765 32.0912 16.7619ZM31.2736 34.2572C30.5916 34.2572 30.0481 34.0063 29.6412 33.5037C29.2351 33.0005 29.033 32.2856 29.033 31.3582C29.033 30.4296 29.2354 29.715 29.6412 29.2115C30.0481 28.7089 30.5916 28.458 31.2736 28.458C31.9542 28.458 32.4955 28.7103 32.8963 29.2144C33.2963 29.7194 33.497 30.4339 33.497 31.3582C33.497 32.2859 33.2963 33.0005 32.8963 33.5037C32.4958 34.0063 31.9556 34.2572 31.2736 34.2572ZM72.8751 6.22884H19.1225V85.7714H72.8751V6.22884ZM67.2302 39.5113V42.2425H24.0185V39.5113H67.2302ZM27.3229 31.3579C27.3229 29.8486 27.7402 28.7164 28.5745 27.9597C29.1965 27.3195 30.0959 26.9986 31.2736 26.9986C32.4508 26.9986 33.3511 27.3195 33.9722 27.9597C34.8016 28.7164 35.2177 29.8486 35.2177 31.3579C35.2177 32.8367 34.8019 33.9688 33.9722 34.7549C33.3511 35.3954 32.4508 35.7161 31.2736 35.7161C30.0959 35.7161 29.1965 35.3954 28.5745 34.7549C27.7402 33.9688 27.3229 32.8352 27.3229 31.3579ZM36.5041 35.4859V27.2497H38.3067L41.5772 32.993V27.2497H43.1814V35.4859H41.4607L38.1075 29.6418V35.4859H36.5041ZM44.6558 35.4859V27.2497H46.3676V35.4859H44.6558ZM50.0308 33.6109C50.4934 34.0314 51.0193 34.2419 51.6065 34.2419C52.1844 34.2419 52.6602 34.0761 53.0267 33.7445C53.3947 33.4131 53.6245 32.978 53.7081 32.4427H51.8011V31.0666H55.2316V35.4859H54.0911L53.9209 34.4579C53.5864 34.8472 53.2911 35.1217 53.0264 35.2821C52.5702 35.5589 52.0122 35.6988 51.3507 35.6988C50.2604 35.6988 49.3661 35.3207 48.668 34.5657C47.941 33.8053 47.5794 32.7669 47.5794 31.449C47.5794 30.1159 47.947 29.0477 48.6801 28.2449C49.4146 27.4412 50.3849 27.0395 51.5909 27.0395C52.6371 27.0395 53.4766 27.3042 54.1121 27.8348C54.7477 28.3655 55.1128 29.0278 55.2039 29.8217H53.51C53.3791 29.2597 53.0628 28.8661 52.5549 28.6432C52.2723 28.5197 51.956 28.4589 51.6137 28.4589C50.949 28.4589 50.4031 28.7098 49.9757 29.2095C49.5512 29.7098 49.337 30.4619 49.337 31.4646C49.3376 32.4739 49.5688 33.1905 50.0308 33.6109ZM61.7771 30.3907V27.2497H63.488V35.4859H61.7771V31.8089H58.5747V35.4859H56.8623V27.2497H58.5747V30.3907H61.7771ZM66.9277 35.4859V28.7089H64.4503V27.2497H71.1232V28.7089H68.6597V35.4859H66.9277ZM38.1078 15.7993H38.8446V16.5263H38.1078V15.7993ZM38.1078 17.6227H38.8446V18.3503H38.1078V17.6227ZM36.3034 15.7221V14.9824H36.99V15.7221H37.4212V16.2155H36.99V17.6167C36.99 17.7254 37.0036 17.7923 37.0319 17.8191C37.0601 17.8459 37.1446 17.8595 37.2859 17.8595C37.3064 17.8595 37.3292 17.8595 37.3528 17.858C37.3765 17.858 37.3992 17.8566 37.4212 17.8549V18.3751L37.0927 18.3881C36.7657 18.3987 36.5416 18.3425 36.4214 18.2185C36.3438 18.1386 36.3052 18.0155 36.3052 17.8505V16.2189H35.9357V15.7221H36.3034ZM33.1685 15.7027H33.8399V16.0892C33.9281 15.9536 34.0126 15.8544 34.0922 15.7947C34.2335 15.6875 34.4137 15.6341 34.632 15.6341C34.9048 15.6341 35.1272 15.7056 35.3019 15.8487C35.4744 15.9923 35.5617 16.2302 35.5617 16.5641V18.3503H34.8515V16.7366C34.8515 16.5967 34.8327 16.4903 34.7952 16.4159C34.7283 16.2789 34.5991 16.212 34.4091 16.212C34.1755 16.212 34.0152 16.3118 33.9278 16.511C33.8828 16.6169 33.8609 16.7507 33.8609 16.9139V18.3503H33.1682L33.1685 15.7027ZM30.5475 15.9957C30.7909 15.7515 31.1064 15.6286 31.4957 15.6286C31.7267 15.6286 31.9352 15.6704 32.1206 15.7532C32.3054 15.8354 32.4583 15.966 32.5782 16.1457C32.6869 16.3023 32.757 16.4862 32.7896 16.693C32.8086 16.8147 32.8161 16.9909 32.8133 17.2199H30.8826C30.8933 17.486 30.9853 17.6729 31.1594 17.7787C31.2653 17.8456 31.393 17.8785 31.5427 17.8785C31.7001 17.8785 31.8293 17.8381 31.9274 17.7568C31.9816 17.7136 32.0286 17.6527 32.0704 17.5751H32.7789C32.7599 17.7326 32.6748 17.8929 32.522 18.0541C32.2841 18.3125 31.9525 18.4403 31.5237 18.4403C31.1701 18.4403 30.859 18.3315 30.5899 18.1132C30.3197 17.8958 30.1847 17.5426 30.1847 17.0517C30.1833 16.5924 30.305 16.2403 30.5475 15.9957ZM28.1373 15.6984L28.6901 17.6542L29.2536 15.6984H29.9982L29.0408 18.3506H28.3086L27.3575 15.6984H28.1373ZM24.3749 14.7638H27.0049V15.3994H25.1071V16.1607H26.8491V16.7833H25.1071V17.7055H27.0925V18.3503H24.3749V14.7638ZM24.0185 20.8245H67.2302V23.5557H24.0185V20.8245ZM20.1534 27.2497H26.8241V28.7089H24.3614V35.4859H22.6294V28.7089H20.1537L20.1534 27.2497ZM25.289 53.6035L26.8835 48.6934L28.4779 53.6035H33.6406L29.4641 56.6375L31.0585 61.5461L26.882 58.5136L22.7061 61.5464L24.3005 56.6378L20.1237 53.6038L25.289 53.6035ZM31.1612 83.7001C26.2874 83.7001 22.3364 79.7494 22.3364 74.8753C22.3364 70.0012 26.2874 66.0505 31.1612 66.0505C36.0349 66.0505 39.9859 70.0012 39.9859 74.8753C39.9859 79.7494 36.0349 83.7001 31.1612 83.7001ZM55.2316 61.1205H36.7671V59.5633H55.2316V61.1205ZM55.2316 56.4489H36.7671V54.8917H55.2316V56.4489ZM55.2316 51.7772H36.7671V50.2203H55.2316V51.7772ZM69.2194 61.5464L65.0435 58.5139L60.8647 61.5464L62.4599 56.6378L58.2826 53.6038H63.4436L65.0374 48.6937L66.631 53.6038H71.7937L67.6163 56.6378L69.2194 61.5464ZM35.0277 70.2481L25.2175 75.8927L24.4404 74.5422L34.2505 68.8973L35.0277 70.2481ZM36.4525 72.7344L26.6424 78.3776L25.8652 77.0286L35.6753 71.3837L36.4525 72.7344ZM37.1149 73.8671L37.8903 75.2176L28.0747 80.8532L27.2993 79.5028L37.1149 73.8671Z" fill="#C23A3A"/>
</svg>
