<svg width="82" height="82" viewBox="0 0 82 82" fill="none" xmlns="http://www.w3.org/2000/svg">
<g clip-path="url(#clip0)">
<path d="M9.56738 68.4326H56.014V74.1057H9.56738V68.4326Z" fill="#C23A3A"/>
<path d="M71.2714 21.952H65.5821V7.84766H0V30.8107C0 36.7677 1.80426 42.4971 5.21759 47.3793C8.06349 51.4496 9.56746 56.2261 9.56746 61.1928V63.6283H56.014V61.1928C56.014 59.3954 56.2142 57.6237 56.6002 55.9008H71.2714C77.1872 55.9008 82 51.088 82 45.1728V32.6806C82 26.7649 77.1872 21.952 71.2714 21.952ZM40.848 43.2891C38.3668 45.7697 35.1756 47.039 32.1364 47.039C29.5807 47.039 27.1321 46.1419 25.3034 44.3132C21.3002 40.3093 21.7594 33.3363 26.3276 28.7687C28.4872 26.6085 31.2511 25.2865 34.1095 25.0457C37.1193 24.7917 39.8777 25.7501 41.8715 27.7446C45.8754 31.7478 45.4156 38.7209 40.848 43.2891ZM77.1909 45.1722C77.1909 48.4366 74.5352 51.0917 71.2714 51.0917H58.2331C58.8286 49.8036 59.5381 48.5611 60.3645 47.3793C63.7778 42.4977 65.5821 36.7684 65.5821 30.8107V26.7611H71.2714C74.5358 26.7611 77.1909 29.4162 77.1909 32.6806V45.1722Z" fill="#C23A3A"/>
<path d="M38.5909 33.984C37.8602 34.1855 37.4936 34.2874 36.8511 34.9293C36.2092 35.5712 36.1072 35.9384 35.9058 36.6691C35.6349 37.6482 35.2645 38.9895 33.7249 40.5285C32.8678 41.3862 32.072 41.8805 31.3657 42.197C33.3477 42.4729 35.6662 41.6696 37.4473 39.8885C39.2841 38.0517 40.0805 35.6438 39.727 33.623C39.3104 33.7838 38.9287 33.8908 38.5909 33.984Z" fill="#C23A3A"/>
<path d="M35.7975 29.8661C35.551 29.8323 35.297 29.8154 35.0373 29.8154C34.8653 29.8154 34.6908 29.8229 34.5137 29.838C32.7851 29.9837 31.0854 30.8114 29.7278 32.169C27.8916 34.0051 27.0946 36.4131 27.4481 38.4345C27.8653 38.2737 28.247 38.1667 28.5848 38.0735C29.3155 37.8714 29.6827 37.7701 30.3246 37.1282C30.9671 36.4857 31.0685 36.1191 31.2705 35.3884C31.5408 34.4087 31.9118 33.068 33.4508 31.529C34.3035 30.6763 35.0949 30.1827 35.7975 29.8661Z" fill="#C23A3A"/>
</g>
<defs>
<clipPath id="clip0">
<rect width="82" height="82" fill="white"/>
</clipPath>
</defs>
</svg>
