<svg width="106" height="106" viewBox="0 0 106 106" fill="none" xmlns="http://www.w3.org/2000/svg">
<path d="M44.7188 79.5H48.0312V96.0625H44.7188V79.5Z" fill="#C23A3A"/>
<path d="M57.9688 80.0781H61.2812V102.688H57.9688V80.0781Z" fill="#C23A3A"/>
<path d="M71.2188 71.2188H34.7812C33.8665 71.2188 33.125 71.9603 33.125 72.875V76.1875C33.125 77.1022 33.8665 77.8438 34.7812 77.8438H71.2188C72.1335 77.8438 72.875 77.1022 72.875 76.1875V72.875C72.875 71.9603 72.1335 71.2188 71.2188 71.2188Z" fill="#C23A3A"/>
<path d="M51.0788 59.6084C50.8209 59.5653 50.577 59.4618 50.3669 59.3064C50.1567 59.1509 49.9863 58.948 49.8697 58.7141L48.6606 56.3125H48.0312V67.9062H57.9688V56.3125H55.3353L52.5197 59.1447C52.3312 59.3274 52.1032 59.4643 51.8534 59.5448C51.6035 59.6252 51.3384 59.647 51.0788 59.6084Z" fill="#C23A3A"/>
<path d="M44.7188 54.6562C44.7188 54.217 44.8932 53.7957 45.2039 53.4851C45.5145 53.1745 45.9357 53 46.375 53H49.6875C49.9943 52.9965 50.2957 53.0802 50.5567 53.2415C50.8177 53.4028 51.0275 53.635 51.1616 53.9109L51.7909 55.1697L53.4803 53.4803C53.7961 53.1752 54.2172 53.0033 54.6562 53H59.625C60.0643 53 60.4855 53.1745 60.7961 53.4851C61.1068 53.7957 61.2812 54.217 61.2812 54.6562V67.9062H67.9062V39.75C67.9062 35.7966 66.3358 32.0052 63.5403 29.2097C60.7448 26.4142 56.9534 24.8438 53 24.8438C49.0466 24.8438 45.2552 26.4142 42.4597 29.2097C39.6642 32.0052 38.0938 35.7966 38.0938 39.75V67.9062H44.7188V54.6562ZM39.75 39.75C39.7539 36.2371 41.1512 32.8692 43.6352 30.3852C46.1192 27.9012 49.4871 26.5039 53 26.5V29.8125C50.3652 29.8151 47.8391 30.863 45.976 32.726C44.113 34.5891 43.0651 37.1152 43.0625 39.75H39.75Z" fill="#C23A3A"/>
<path d="M51.3438 3.3125H54.6562V13.25H51.3438V3.3125Z" fill="#C23A3A"/>
<path d="M16.6899 19.0391L19.0322 16.6968L26.0591 23.7236L23.7168 26.0659L16.6899 19.0391Z" fill="#C23A3A"/>
<path d="M3.3125 51.3438H13.25V54.6562H3.3125V51.3438Z" fill="#C23A3A"/>
<path d="M92.75 51.3438H102.688V54.6562H92.75V51.3438Z" fill="#C23A3A"/>
<path d="M79.9253 23.7275L86.9522 16.7007L89.2945 19.043L82.2676 26.0698L79.9253 23.7275Z" fill="#C23A3A"/>
</svg>
