<svg width="15" height="15" viewBox="0 0 15 15" fill="none" xmlns="http://www.w3.org/2000/svg">
<path d="M7.5003 0C4.50484 0 2.06787 2.43697 2.06787 5.4324C2.06787 9.14983 6.92937 14.6072 7.13635 14.8377C7.33076 15.0543 7.6702 15.0539 7.86426 14.8377C8.07124 14.6072 12.9327 9.14983 12.9327 5.4324C12.9327 2.43697 10.4957 0 7.5003 0ZM7.5003 8.1656C5.99321 8.1656 4.76714 6.93949 4.76714 5.4324C4.76714 3.92531 5.99324 2.69924 7.5003 2.69924C9.00736 2.69924 10.2334 3.92534 10.2334 5.43243C10.2334 6.93952 9.00736 8.1656 7.5003 8.1656Z" fill="#C23A3A"/>
</svg>
